<?xml version="1.0" encoding="UTF-8"?>
<svg id="Layer_2" data-name="Layer 2" xmlns="http://www.w3.org/2000/svg" viewBox="0 0 918.09 218.4">
  <defs>
    <style>
      .cls-1 {
        fill: #231f20;
      }

      .cls-2 {
        fill: none;
        stroke: #231f20;
        stroke-miterlimit: 10;
        stroke-width: 8px;
      }
    </style>
  </defs>
  <g id="logo-3">
    <path class="cls-1" d="M47.33,181.71c-17.65-24.31-11.8-49.87,4.12-73.52,11.96-18.07,25.99-34.28,42.64-47.72-4.49-3.66-8.33-6.75-12.71-10.48-12.81-10.46-25.12-22.39-42.78-21.19l-4.51.27c-11.42,2.97-16.18,5.86-23.21,15.82C4.06,54.55,2.26,68.42.91,80.37c-2.29,26.31-.34,52.68,7.06,78.28,7.7,27.45,23.39,48.46,53.34,50.76,6.5.64,11.69,1.32,17.91.35-13.05-6.1-23.39-15.83-31.89-28.05Z"/>
    <path class="cls-2" d="M30.85,40.02c-4.85-10.92-8.29-24.4-1.48-37.79"/>
    <ellipse class="cls-1" cx="30.85" cy="40.02" rx="3.99" ry="2.16" transform="translate(-13.59 15.98) rotate(-23.96)"/>
    <path class="cls-1" d="M186.98,93.75c-.32-16.54.79-33.64-11.56-46.32l-3.13-3.26c-9.66-6.78-14.94-8.53-27.08-7.44-11.78,1.06-23.51,8.68-33.5,15.39-4.01,2.85-7.94,5.82-11.75,8.9-16.65,13.45-31.35,29.11-43.31,47.18-15.92,23.65-21.77,49.21-4.12,73.52,8.49,12.22,20.02,21.02,33.07,27.13,6.89,3.22,14.2,5.71,21.73,7.52,35.3,9.63,61.5-16.3,73.15-47.23,9.35-24.32,6.52-50.18,6.51-75.39Z"/>
    <path class="cls-2" d="M160.65,48.66c5.18-10.77,13.22-22.12,27.84-25.61"/>
    <ellipse class="cls-1" cx="160.6" cy="48.62" rx="1.84" ry="4" transform="translate(47.21 172.31) rotate(-64.33)"/>
    <ellipse class="cls-1" cx="29.36" cy="2.23" rx="1.54" ry="3.94" transform="translate(14.31 27.54) rotate(-63.6)"/>
    <ellipse class="cls-1" cx="188.78" cy="22.96" rx="2.41" ry="4.01" transform="translate(-.02 45.74) rotate(-13.81)"/>
    <g>
      <path class="cls-1" d="M272.5,79.84c24.15,0,41.4,6.45,41.4,29.7,0,25.8-19.95,33.9-44.55,33.9h-3.3v29.1l14.4,1.05v11.25h-48.45v-11.25l9.9-1.05v-80.4l-9.9-1.05v-11.25h40.5ZM266.05,131.44h3c12.6,0,19.05-6.15,19.05-20.25,0-15.15-6-19.05-18.15-19.05h-3.9v39.3Z"/>
      <path class="cls-1" d="M352.45,108.04c18,0,30.75,10.2,30.75,33.15,0,1.95-.15,6-.3,8.1h-41.85c.3,13.95,2.85,24.75,15.3,24.75,8.55,0,12.75-5.4,16.05-13.5l10.35,3.75c-4.2,14.1-14.7,22.2-30,22.2-23.4,0-35.4-15-35.4-37.95,0-25.95,14.4-40.5,35.1-40.5ZM360.1,139.84v-3.15c0-13.95-1.65-19.65-8.55-19.65-7.8,0-10.05,9.6-10.35,22.8h18.9Z"/>
      <path class="cls-1" d="M430.6,145.69v-10.8c0-11.55-2.4-18.3-12.15-18.3-4.05,0-7.65,1.05-7.65,4.95,0,.6.15,1.2.3,2.1h5.4c.45,1.95.9,4.05.9,5.85,0,6-3.6,10.35-11.25,10.35s-11.4-5.25-11.4-11.85c0-11.85,10.2-19.95,28.8-19.95s29.85,6.75,29.85,28.35v30.9c0,5.4.3,7.95,3.15,7.95,1.05,0,2.4-.15,4.5-1.05l2.25,7.65c-2.7,1.8-8.7,4.65-15.9,4.65-8.55,0-12-3.3-13.8-10.8-3,6-9,10.8-21.45,10.8-11.1,0-20.7-5.25-20.7-19.65,0-16.35,10.5-21.15,29.1-21.15h10.05ZM430.6,163.84v-10.35h-5.25c-8.25,0-10.65,3.75-10.65,11.55,0,6.75,2.1,10.35,7.35,10.35,4.35,0,8.55-3.3,8.55-11.55Z"/>
      <path class="cls-1" d="M515.8,174.34v10.5h-48.15v-10.5l9.15-1.05v-52.2l-9.15-1.2v-10.2h29.4l1.2,12.3c3.15-6.75,9-13.95,21-13.95,9.45,0,16.65,6,16.65,17.7,0,9.9-5.25,15.45-13.65,15.45-8.85,0-12-5.7-11.85-13.5l5.85-1.8c.15-.6.3-1.35.3-1.95,0-2.55-1.65-3.45-4.2-3.45-8.1,0-12.75,10.5-12.75,22.05v30.75l16.2,1.05Z"/>
      <path class="cls-1" d="M611.19,79.84v11.25l-11.7,1.35v80.1h6c16.8,0,25.2-4.95,28.5-27.75h10.65l-1.35,40.05h-76.95v-11.25l9-1.2v-79.95l-9-1.2v-11.4h44.85Z"/>
      <path class="cls-1" d="M687.24,108.04c18,0,30.75,10.2,30.75,33.15,0,1.95-.15,6-.3,8.1h-41.85c.3,13.95,2.85,24.75,15.3,24.75,8.55,0,12.75-5.4,16.05-13.5l10.35,3.75c-4.2,14.1-14.7,22.2-30,22.2-23.4,0-35.4-15-35.4-37.95,0-25.95,14.4-40.5,35.1-40.5ZM694.89,139.84v-3.15c0-13.95-1.65-19.65-8.55-19.65-7.8,0-10.05,9.6-10.35,22.8h18.9Z"/>
      <path class="cls-1" d="M746.35,160.24c-2.55,3-3.6,4.95-3.6,6.45,0,2.25,1.65,3.15,4.8,3.15h20.55c15.45,0,27.45,4.05,27.45,21.15,0,15.6-9.9,25.5-39,25.5-23.4,0-32.25-5.55-32.25-15.6,0-6.75,3.75-10.8,9.45-13.65-3.75-1.95-5.7-5.85-5.7-10.05,0-7.5,4.8-12.3,12.3-19.2-8.25-4.05-12.6-12.15-12.6-22.2,0-16.95,12.45-27.75,30.15-27.75,7.65,0,13.05,1.8,16.5,4.2,3.3-6.3,9.3-10.05,14.55-10.05,1.65,0,3.3.45,4.65,1.2v11.55l-12.6,1.5c4.05,3.75,7.95,9.3,7.95,18.75,0,17.7-12.6,26.55-30.15,26.55-4.8,0-8.7-.45-12.45-1.5ZM740.05,190.39c-1.2,2.1-2.1,4.35-2.1,7.05,0,6.9,5.7,8.85,20.55,8.85s21.45-2.25,21.45-9.45c0-5.4-3.9-6.45-11.55-6.45h-28.35ZM758.79,151.99c6.45,0,8.55-5.1,8.55-18.15s-2.1-17.55-8.55-17.55-9.45,5.55-9.45,17.85,2.1,17.85,9.45,17.85Z"/>
      <path class="cls-1" d="M839.49,145.69v-10.8c0-11.55-2.4-18.3-12.15-18.3-4.05,0-7.65,1.05-7.65,4.95,0,.6.15,1.2.3,2.1h5.4c.45,1.95.9,4.05.9,5.85,0,6-3.6,10.35-11.25,10.35s-11.4-5.25-11.4-11.85c0-11.85,10.2-19.95,28.8-19.95s29.85,6.75,29.85,28.35v30.9c0,5.4.3,7.95,3.15,7.95,1.05,0,2.4-.15,4.5-1.05l2.25,7.65c-2.7,1.8-8.7,4.65-15.9,4.65-8.55,0-12-3.3-13.8-10.8-3,6-9,10.8-21.45,10.8-11.1,0-20.7-5.25-20.7-19.65,0-16.35,10.5-21.15,29.1-21.15h10.05ZM839.49,163.84v-10.35h-5.25c-8.25,0-10.65,3.75-10.65,11.55,0,6.75,2.1,10.35,7.35,10.35,4.35,0,8.55-3.3,8.55-11.55Z"/>
      <path class="cls-1" d="M908.49,73.24v100.2l9.6,1.05v10.35h-41.85v-10.35l9.45-1.05v-88.95l-9.45-1.05v-10.2h32.25Z"/>
    </g>
  </g>
</svg>