<?xml version="1.0" encoding="UTF-8"?>
<svg id="Layer_2" data-name="Layer 2" xmlns="http://www.w3.org/2000/svg" viewBox="0 0 761.22 218.4">
  <defs>
    <style>
      .cls-1 {
        fill: #653614;
      }

      .cls-2 {
        stroke-linecap: round;
        stroke-width: 2px;
      }

      .cls-2, .cls-3 {
        fill: none;
        stroke: #653614;
        stroke-miterlimit: 10;
      }

      .cls-3 {
        stroke-width: 8px;
      }

      .cls-4 {
        fill: #ffdb57;
      }
    </style>
  </defs>
  <g id="logo-3">
    <line class="cls-2" x1="361.77" y1="184.83" x2="760.22" y2="184.83"/>
    <g>
      <path class="cls-1" d="M243.74,48.59c19.32,0,33.12,5.16,33.12,23.76,0,20.64-15.96,27.12-35.64,27.12h-2.64v23.28l11.52.84v9h-38.76v-9l7.92-.84V58.43l-7.92-.84v-9h32.4ZM238.58,89.87h2.4c10.08,0,15.24-4.92,15.24-16.2,0-12.12-4.8-15.24-14.52-15.24h-3.12v31.44Z"/>
      <path class="cls-1" d="M307.7,71.15c14.4,0,24.6,8.16,24.6,26.52,0,1.56-.12,4.8-.24,6.48h-33.48c.24,11.16,2.28,19.8,12.24,19.8,6.84,0,10.2-4.32,12.84-10.8l8.28,3c-3.36,11.28-11.76,17.76-24,17.76-18.72,0-28.32-12-28.32-30.36,0-20.76,11.52-32.4,28.08-32.4ZM313.82,96.59v-2.52c0-11.16-1.32-15.72-6.84-15.72-6.24,0-8.04,7.68-8.28,18.24h15.12Z"/>
      <path class="cls-1" d="M370.22,101.27v-8.64c0-9.24-1.92-14.64-9.72-14.64-3.24,0-6.12.84-6.12,3.96,0,.48.12.96.24,1.68h4.32c.36,1.56.72,3.24.72,4.68,0,4.8-2.88,8.28-9,8.28s-9.12-4.2-9.12-9.48c0-9.48,8.16-15.96,23.04-15.96s23.88,5.4,23.88,22.68v24.72c0,4.32.24,6.36,2.52,6.36.84,0,1.92-.12,3.6-.84l1.8,6.12c-2.16,1.44-6.96,3.72-12.72,3.72-6.84,0-9.6-2.64-11.04-8.64-2.4,4.8-7.2,8.64-17.16,8.64-8.88,0-16.56-4.2-16.56-15.72,0-13.08,8.4-16.92,23.28-16.92h8.04ZM370.22,115.79v-8.28h-4.2c-6.6,0-8.52,3-8.52,9.24,0,5.4,1.68,8.28,5.88,8.28,3.48,0,6.84-2.64,6.84-9.24Z"/>
      <path class="cls-1" d="M438.38,124.19v8.4h-38.52v-8.4l7.32-.84v-41.76l-7.32-.96v-8.16h23.52l.96,9.84c2.52-5.4,7.2-11.16,16.8-11.16,7.56,0,13.32,4.8,13.32,14.16,0,7.92-4.2,12.36-10.92,12.36-7.08,0-9.6-4.56-9.48-10.8l4.68-1.44c.12-.48.24-1.08.24-1.56,0-2.04-1.32-2.76-3.36-2.76-6.48,0-10.2,8.4-10.2,17.64v24.6l12.96.84Z"/>
      <path class="cls-1" d="M514.7,48.59v9l-9.36,1.08v64.08h4.8c13.44,0,20.16-3.96,22.8-22.2h8.52l-1.08,32.04h-61.56v-9l7.2-.96v-63.96l-7.2-.96v-9.12h35.88Z"/>
      <path class="cls-1" d="M575.54,71.15c14.4,0,24.6,8.16,24.6,26.52,0,1.56-.12,4.8-.24,6.48h-33.48c.24,11.16,2.28,19.8,12.24,19.8,6.84,0,10.2-4.32,12.84-10.8l8.28,3c-3.36,11.28-11.76,17.76-24,17.76-18.72,0-28.32-12-28.32-30.36,0-20.76,11.52-32.4,28.08-32.4ZM581.66,96.59v-2.52c0-11.16-1.32-15.72-6.84-15.72-6.24,0-8.04,7.68-8.28,18.24h15.12Z"/>
      <path class="cls-1" d="M622.82,112.91c-2.04,2.4-2.88,3.96-2.88,5.16,0,1.8,1.32,2.52,3.84,2.52h16.44c12.36,0,21.96,3.24,21.96,16.92,0,12.48-7.92,20.4-31.2,20.4-18.72,0-25.8-4.44-25.8-12.48,0-5.4,3-8.64,7.56-10.92-3-1.56-4.56-4.68-4.56-8.04,0-6,3.84-9.84,9.84-15.36-6.6-3.24-10.08-9.72-10.08-17.76,0-13.56,9.96-22.2,24.12-22.2,6.12,0,10.44,1.44,13.2,3.36,2.64-5.04,7.44-8.04,11.64-8.04,1.32,0,2.64.36,3.72.96v9.24l-10.08,1.2c3.24,3,6.36,7.44,6.36,15,0,14.16-10.08,21.24-24.12,21.24-3.84,0-6.96-.36-9.96-1.2ZM617.78,137.03c-.96,1.68-1.68,3.48-1.68,5.64,0,5.52,4.56,7.08,16.44,7.08s17.16-1.8,17.16-7.56c0-4.32-3.12-5.16-9.24-5.16h-22.68ZM632.78,106.31c5.16,0,6.84-4.08,6.84-14.52s-1.68-14.04-6.84-14.04-7.56,4.44-7.56,14.28,1.68,14.28,7.56,14.28Z"/>
      <path class="cls-1" d="M697.34,101.27v-8.64c0-9.24-1.92-14.64-9.72-14.64-3.24,0-6.12.84-6.12,3.96,0,.48.12.96.24,1.68h4.32c.36,1.56.72,3.24.72,4.68,0,4.8-2.88,8.28-9,8.28s-9.12-4.2-9.12-9.48c0-9.48,8.16-15.96,23.04-15.96s23.88,5.4,23.88,22.68v24.72c0,4.32.24,6.36,2.52,6.36.84,0,1.92-.12,3.6-.84l1.8,6.12c-2.16,1.44-6.96,3.72-12.72,3.72-6.84,0-9.6-2.64-11.04-8.64-2.4,4.8-7.2,8.64-17.16,8.64-8.88,0-16.56-4.2-16.56-15.72,0-13.08,8.4-16.92,23.28-16.92h8.04ZM697.34,115.79v-8.28h-4.2c-6.6,0-8.52,3-8.52,9.24,0,5.4,1.68,8.28,5.88,8.28,3.48,0,6.84-2.64,6.84-9.24Z"/>
      <path class="cls-1" d="M752.54,43.31v80.16l7.68.84v8.28h-33.48v-8.28l7.56-.84V52.31l-7.56-.84v-8.16h25.8Z"/>
    </g>
    <g>
      <path class="cls-1" d="M227.36,157.52c8.85,0,15.18,2.36,15.18,10.89,0,9.46-7.31,12.43-16.33,12.43h-1.21v10.67l5.28.39v4.12h-17.76v-4.12l3.63-.39v-29.48l-3.63-.39v-4.12h14.85ZM225,176.44h1.1c4.62,0,6.98-2.25,6.98-7.42,0-5.55-2.2-6.98-6.65-6.98h-1.43v14.41Z"/>
      <path class="cls-1" d="M261.95,157.52v4.12l-4.29.5v29.37h2.2c6.16,0,9.24-1.81,10.45-10.17h3.91l-.5,14.68h-28.21v-4.12l3.3-.44v-29.31l-3.3-.44v-4.18h16.44Z"/>
      <path class="cls-1" d="M293.58,157.52v4.12l-4.29.5v29.37h2.2c6.16,0,9.24-1.81,10.45-10.17h3.9l-.5,14.68h-28.21v-4.12l3.3-.44v-29.31l-3.3-.44v-4.18h16.44Z"/>
      <path class="cls-1" d="M318.72,176.66c0,10.61,2.91,15.56,8.63,15.56,5.22,0,7.2-3.35,8.63-9.24h4.12l-.38,13.03h-3.63c-.33-1.21-.6-1.76-1.26-1.76-1.1,0-3.41,2.36-8.91,2.36-9.62,0-16.77-5.88-16.77-19.91,0-13.03,7.92-19.8,17.1-19.8,4.95,0,7.09,2.14,8.19,2.14.77,0,1.04-.66,1.48-1.65h3.35l.39,12.76h-4.12c-1.26-5.66-3.3-8.96-8.19-8.96s-8.63,3.68-8.63,15.45Z"/>
    </g>
    <line class="cls-2" x1="361.77" y1="175.91" x2="760.22" y2="175.91"/>
    <path class="cls-4" d="M47.33,181.71c-17.65-24.31-11.8-49.87,4.12-73.52,11.96-18.07,25.99-34.28,42.64-47.72-4.49-3.66-8.33-6.75-12.71-10.48-12.81-10.46-25.12-22.39-42.78-21.19l-4.51.27c-11.42,2.97-16.18,5.86-23.21,15.82C4.06,54.55,2.26,68.42.91,80.37c-2.29,26.31-.34,52.68,7.06,78.28,7.7,27.45,23.39,48.46,53.34,50.76,6.5.64,11.69,1.32,17.91.35-13.05-6.1-23.39-15.83-31.89-28.05Z"/>
    <path class="cls-3" d="M30.85,40.02c-4.85-10.92-8.29-24.4-1.48-37.79"/>
    <ellipse class="cls-1" cx="30.85" cy="40.02" rx="3.99" ry="2.16" transform="translate(-13.59 15.98) rotate(-23.96)"/>
    <path class="cls-4" d="M186.98,93.75c-.32-16.54.79-33.64-11.56-46.32l-3.13-3.26c-9.66-6.78-14.94-8.53-27.08-7.44-11.78,1.06-23.51,8.68-33.5,15.39-4.01,2.85-7.94,5.82-11.75,8.9-16.65,13.45-31.35,29.11-43.31,47.18-15.92,23.65-21.77,49.21-4.12,73.52,8.49,12.22,20.02,21.02,33.07,27.13,6.89,3.22,14.2,5.71,21.73,7.52,35.3,9.63,61.5-16.3,73.15-47.23,9.35-24.32,6.52-50.18,6.51-75.39Z"/>
    <path class="cls-3" d="M160.65,48.66c5.18-10.77,13.22-22.12,27.84-25.61"/>
    <ellipse class="cls-1" cx="160.6" cy="48.62" rx="1.84" ry="4" transform="translate(47.21 172.31) rotate(-64.33)"/>
    <ellipse class="cls-1" cx="29.36" cy="2.23" rx="1.54" ry="3.94" transform="translate(14.31 27.54) rotate(-63.6)"/>
    <ellipse class="cls-1" cx="188.78" cy="22.96" rx="2.41" ry="4.01" transform="translate(-.02 45.74) rotate(-13.81)"/>
  </g>
</svg>